<svg width="15" height="14" viewBox="0 0 15 14" fill="none" xmlns="http://www.w3.org/2000/svg">
<path d="M1.60938 4.48438H9.9375L9.91211 6.51562C9.91211 6.76953 10.0645 6.99805 10.293 7.07422C10.5215 7.17578 10.7754 7.15039 10.9531 6.97266L13.7969 4.33203C14.0508 4.10352 14.0508 3.67188 13.7969 3.44336L10.9531 0.802734C10.7754 0.625 10.5215 0.599609 10.293 0.675781C10.0645 0.777344 9.91211 1.00586 9.91211 1.23438L9.9375 3.26562H1.60938C1.25391 3.26562 1 3.54492 1 3.875C1 4.17969 1.25391 4.48438 1.60938 4.48438ZM13.3906 9.76562H5.03711L5.0625 7.73438C5.0625 7.48047 4.91016 7.25195 4.68164 7.17578C4.45312 7.07422 4.19922 7.125 4.02148 7.30273L1.17773 9.94336C0.923828 10.1719 0.923828 10.6035 1.17773 10.832L4.02148 13.4727C4.19922 13.6504 4.45312 13.6758 4.68164 13.5742C4.91016 13.498 5.0625 13.2695 5.0625 13.0156L5.03711 10.9844H13.3906C13.7207 10.9844 14 10.7305 14 10.375C14 10.0449 13.7207 9.76562 13.3906 9.76562Z" fill="#364B58"/>
</svg>
