<svg width="13" height="14" viewBox="0 0 13 14" fill="none" xmlns="http://www.w3.org/2000/svg">
<path d="M11.375 8.34375H10.0039L8.78516 9.5625H11.375C11.5781 9.5625 11.7812 9.76562 11.7812 9.96875V12C11.7812 12.2285 11.5781 12.4062 11.375 12.4062H1.625C1.39648 12.4062 1.21875 12.2285 1.21875 12V9.96875C1.21875 9.76562 1.39648 9.5625 1.625 9.5625H4.18945L2.9707 8.34375H1.625C0.710938 8.34375 0 9.08008 0 9.96875V12C0 12.9141 0.710938 13.625 1.625 13.625H11.375C12.2637 13.625 13 12.9141 13 12V9.96875C13 9.08008 12.2637 8.34375 11.375 8.34375ZM10.9688 10.9844C10.9688 10.6543 10.6895 10.375 10.3594 10.375C10.0039 10.375 9.75 10.6543 9.75 10.9844C9.75 11.3398 10.0039 11.5938 10.3594 11.5938C10.6895 11.5938 10.9688 11.3398 10.9688 10.9844ZM6.06836 9.99414C6.16992 10.1211 6.32227 10.1719 6.5 10.1719C6.65234 10.1719 6.80469 10.1211 6.90625 9.99414L10.3594 6.54102C10.6133 6.3125 10.6133 5.93164 10.3594 5.70312C10.1309 5.44922 9.75 5.44922 9.52148 5.70312L7.10938 8.11523V1.23438C7.10938 0.904297 6.83008 0.625 6.5 0.625C6.14453 0.625 5.89062 0.904297 5.89062 1.23438V8.11523L3.45312 5.67773C3.19922 5.44922 2.81836 5.44922 2.58984 5.67773C2.33594 5.93164 2.33594 6.3125 2.58984 6.54102L6.06836 9.99414Z" fill="#364B58"/>
</svg>
