<svg width="13" height="14" viewBox="0 0 13 14" fill="none" xmlns="http://www.w3.org/2000/svg">
<path d="M11.375 8.34375H8.125V9.5625H11.375C11.5781 9.5625 11.7812 9.76562 11.7812 9.96875V12C11.7812 12.2285 11.5781 12.4062 11.375 12.4062H1.625C1.39648 12.4062 1.21875 12.2285 1.21875 12V9.96875C1.21875 9.76562 1.39648 9.5625 1.625 9.5625H4.875V8.34375H1.625C0.710938 8.34375 0 9.08008 0 9.96875V12C0 12.9141 0.710938 13.625 1.625 13.625H11.375C12.2637 13.625 13 12.9141 13 12V9.96875C13 9.08008 12.2637 8.34375 11.375 8.34375ZM3.45312 5.11914L5.89062 2.70703V9.5625C5.89062 9.91797 6.14453 10.1719 6.5 10.1719C6.83008 10.1719 7.10938 9.91797 7.10938 9.5625V2.70703L9.52148 5.11914C9.62305 5.24609 9.77539 5.29688 9.95312 5.29688C10.1055 5.29688 10.2578 5.24609 10.3594 5.11914C10.6133 4.89062 10.6133 4.50977 10.3594 4.28125L6.90625 0.828125C6.67773 0.574219 6.29688 0.574219 6.06836 0.828125L2.61523 4.28125C2.36133 4.50977 2.36133 4.89062 2.61523 5.11914C2.84375 5.37305 3.22461 5.37305 3.45312 5.11914ZM10.9688 10.9844C10.9688 10.6543 10.6895 10.375 10.3594 10.375C10.0039 10.375 9.75 10.6543 9.75 10.9844C9.75 11.3398 10.0039 11.5938 10.3594 11.5938C10.6895 11.5938 10.9688 11.3398 10.9688 10.9844Z" fill="#82DFFF"/>
</svg>
